<svg id="visual" viewBox="0 0 900 600" width="900" height="600" xmlns="http://www.w3.org/2000/svg" xmlns:xlink="http://www.w3.org/1999/xlink" version="1.1"><rect x="0" y="0" width="900" height="600" fill="#F7F0E3"></rect><defs><linearGradient id="grad1_0" x1="33.3%" y1="0%" x2="100%" y2="100%"><stop offset="20%" stop-color="#f78154" stop-opacity="1"></stop><stop offset="80%" stop-color="#f78154" stop-opacity="1"></stop></linearGradient></defs><defs><linearGradient id="grad1_1" x1="33.3%" y1="0%" x2="100%" y2="100%"><stop offset="20%" stop-color="#f78154" stop-opacity="1"></stop><stop offset="80%" stop-color="#f3bf8f" stop-opacity="1"></stop></linearGradient></defs><defs><linearGradient id="grad1_2" x1="33.3%" y1="0%" x2="100%" y2="100%"><stop offset="20%" stop-color="#f7f0e3" stop-opacity="1"></stop><stop offset="80%" stop-color="#f3bf8f" stop-opacity="1"></stop></linearGradient></defs><defs><linearGradient id="grad2_0" x1="0%" y1="0%" x2="66.7%" y2="100%"><stop offset="20%" stop-color="#f78154" stop-opacity="1"></stop><stop offset="80%" stop-color="#f78154" stop-opacity="1"></stop></linearGradient></defs><defs><linearGradient id="grad2_1" x1="0%" y1="0%" x2="66.7%" y2="100%"><stop offset="20%" stop-color="#f3bf8f" stop-opacity="1"></stop><stop offset="80%" stop-color="#f78154" stop-opacity="1"></stop></linearGradient></defs><defs><linearGradient id="grad2_2" x1="0%" y1="0%" x2="66.7%" y2="100%"><stop offset="20%" stop-color="#f3bf8f" stop-opacity="1"></stop><stop offset="80%" stop-color="#f7f0e3" stop-opacity="1"></stop></linearGradient></defs><g transform="translate(900, 0)"><path d="M0 486.7C-38.7 488.3 -77.5 489.9 -106.4 466C-135.2 442.2 -154.2 392.9 -175.3 364C-196.3 335.1 -219.4 326.5 -255 319.8C-290.6 313 -338.7 308.1 -353.4 281.8C-368.1 255.6 -349.3 208 -369.4 177.9C-389.5 147.8 -448.5 135.1 -474.5 108.3C-500.6 81.6 -493.7 40.8 -486.7 0L0 0Z" fill="#f3d9b7"></path><path d="M0 324.5C-25.8 325.5 -51.7 326.6 -70.9 310.7C-90.2 294.8 -102.8 261.9 -116.9 242.7C-130.9 223.4 -146.3 217.7 -170 213.2C-193.7 208.7 -225.8 205.4 -235.6 187.9C-245.4 170.4 -232.9 138.7 -246.3 118.6C-259.7 98.5 -299 90 -316.4 72.2C-333.7 54.4 -329.1 27.2 -324.5 0L0 0Z" fill="#f5a26d"></path><path d="M0 162.2C-12.9 162.8 -25.8 163.3 -35.5 155.3C-45.1 147.4 -51.4 131 -58.4 121.3C-65.4 111.7 -73.1 108.8 -85 106.6C-96.9 104.3 -112.9 102.7 -117.8 93.9C-122.7 85.2 -116.4 69.3 -123.1 59.3C-129.8 49.3 -149.5 45 -158.2 36.1C-166.9 27.2 -164.6 13.6 -162.2 0L0 0Z" fill="#f78154"></path></g><g transform="translate(0, 600)"><path d="M0 -486.7C33 -468.5 66 -450.3 100.6 -440.7C135.2 -431 171.3 -429.9 196.1 -407.2C220.9 -384.6 234.4 -340.4 246.3 -308.8C258.2 -277.2 268.6 -258.2 312 -248.8C355.3 -239.3 431.7 -239.4 438.5 -211.2C445.4 -183 382.8 -126.5 379.2 -86.6C375.7 -46.6 431.2 -23.3 486.7 0L0 0Z" fill="#f3d9b7"></path><path d="M0 -324.5C22 -312.4 44 -300.2 67.1 -293.8C90.1 -287.3 114.2 -286.6 130.7 -271.5C147.3 -256.4 156.2 -226.9 164.2 -205.9C172.1 -184.8 179.1 -172.2 208 -165.8C236.9 -159.5 287.8 -159.6 292.4 -140.8C296.9 -122 255.2 -84.3 252.8 -57.7C250.5 -31.1 287.5 -15.5 324.5 0L0 0Z" fill="#f5a26d"></path><path d="M0 -162.2C11 -156.2 22 -150.1 33.5 -146.9C45.1 -143.7 57.1 -143.3 65.4 -135.7C73.6 -128.2 78.1 -113.5 82.1 -102.9C86.1 -92.4 89.5 -86.1 104 -82.9C118.4 -79.8 143.9 -79.8 146.2 -70.4C148.5 -61 127.6 -42.2 126.4 -28.9C125.2 -15.5 143.7 -7.8 162.2 0L0 0Z" fill="#f78154"></path></g></svg>